# xmcd CD database file
#
# Track frame offsets:
#	150
#	15370
#	31328
#	101568
#	148106
#
# Disc length: 2841 seconds
#
# Revision: 0
# Processed by: cddbd v1.5.2PL0 Copyright (c) Steve Scherf et al.
# Submitted via: CDex 1.51
#
DISCID=360b1705
DTITLE=Billie Dean - Time Of The Drum
DYEAR=2006
DGENRE=New Age
TTITLE0=01 Billie Dean - Introduction
TTITLE1=02 Billie Dean - Hyayno Ah
TTITLE2=03 Billie Dean - Grandfather's Meditation
TTITLE3=04 Billie Dean - Water Spirits
TTITLE4=05 Billie Dean - Forest Meditation With Shamanic Drumming Journey
EXTD=YEAR: 2006
EXTT0=
EXTT1=
EXTT2=
EXTT3=
EXTT4=
PLAYORDER=
